<?xml version="1.0" encoding="utf-8"?>
<!-- Generator: Adobe Illustrator 21.0.2, SVG Export Plug-In . SVG Version: 6.00 Build 0)  -->
<svg version="1.1" id="Layer_1" xmlns="http://www.w3.org/2000/svg" xmlns:xlink="http://www.w3.org/1999/xlink" x="0px" y="0px"
	viewBox="0 0 1000 150.9" style="enable-background:new 0 0 1000 150.9;" xml:space="preserve">
<style type="text/css">
	.st0{fill:url(#SVGID_1_);}
	.st1{fill:url(#SVGID_2_);}
	.st2{fill:url(#SVGID_3_);}
	.st3{fill:url(#SVGID_4_);}
	.st4{opacity:0.3;clip-path:url(#SVGID_6_);}
	.st5{fill:#7DCBDB;}
	.st6{fill:url(#SVGID_7_);}
	.st7{opacity:0.3;clip-path:url(#SVGID_9_);}
	.st8{opacity:0.2;fill:#1C1E38;enable-background:new    ;}
	.st9{fill:#DB928E;}
	.st10{fill:#F7B7B1;}
	.st11{fill:#F5A074;}
	.st12{fill:#E94387;}
	.st13{fill:#1C77AB;}
	.st14{fill:#2E8CCC;}
	.st15{fill:#1C1E38;}
	.st16{opacity:0.2;fill:#1C1E38;}
	.st17{fill:#D17198;}
	.st18{fill:#F28FB5;}
	.st19{fill:#F8B7B0;}
	.st20{fill:#9B1F51;}
	.st21{fill:#FF3C88;}
	.st22{fill:#43A2CC;}
	.st23{fill:#2B7D99;}
	.st24{fill:url(#SVGID_10_);}
	.st25{fill:#EC6669;}
	.st26{fill:#FBC96C;}
	.st27{fill:#EB5C5C;}
</style>
<linearGradient id="SVGID_1_" gradientUnits="userSpaceOnUse" x1="1037.9204" y1="1591.5562" x2="2120" y2="1591.5562" gradientTransform="matrix(1 0 0 1 -1079 -1519.6841)">
	<stop  offset="0" style="stop-color:#FAC739"/>
	<stop  offset="1" style="stop-color:#E7266D"/>
</linearGradient>
<path class="st0" d="M-31.9,122.1c-3.3-4.8,108.5-100.4,501.4-52.4C630.1,90.4,874.3,89.2,975,29.2c4.9-2.9,41.9-38.2,33.5-38.2
	h32.5v161.2H130.7C-100.9,157.5-30.9,123.6-31.9,122.1z"/>
<g>
	
		<linearGradient id="SVGID_2_" gradientUnits="userSpaceOnUse" x1="500.5187" y1="13.3898" x2="378.7086" y2="135.1997" gradientTransform="matrix(1 0 0 -1 0 152)">
		<stop  offset="0" style="stop-color:#FAC739"/>
		<stop  offset="0.9973" style="stop-color:#EE8635"/>
	</linearGradient>
	<path class="st1" d="M512.5,31.2L512.5,31.2c-12.4-13.1-31.6-21.5-53.1-21.5c-26.8,0-49.9,13-60.8,31.8l0,0
		c-5.6-1.9-11.8-2.9-18.2-2.9c-25.4,0-46.5,15.8-49.8,36.3c-0.3,1.8-0.5,3.7-0.5,5.6c0,23.1,22.5,41.9,50.2,41.9h78.8
		c0.1,0,0.1,0,0.2,0s0.1,0,0.2,0H490c11.5,0,22.2-2.9,31.2-7.7c15.5-8.5,25.8-23.1,25.8-39.8C547.1,55.3,532.8,38.4,512.5,31.2z"/>
	
		<linearGradient id="SVGID_3_" gradientUnits="userSpaceOnUse" x1="630.1004" y1="42.8693" x2="547.832" y2="125.1377" gradientTransform="matrix(1 0 0 -1 0 152)">
		<stop  offset="0" style="stop-color:#FAC739"/>
		<stop  offset="0.9973" style="stop-color:#EE8635"/>
	</linearGradient>
	<path class="st2" d="M632.1,43.2L632.1,43.2c-3.8-3.3-8.4-6-13.6-7.6c-8-8.9-20.8-14.7-35.2-14.7c-16.9,0-31.5,7.9-38.9,19.5l0,0
		c-15.4,2.2-27,13.3-27,26.8c0,15,14.6,27.2,32.5,27.2h33.3h0.1h0.1h22.1h0.1h0.1h24.8c16.9,0,30.6-11.4,30.6-25.6
		c0-0.5,0-1.1-0.1-1.6C660.1,54.2,647.6,43.9,632.1,43.2z"/>
</g>
<g>
	
		<linearGradient id="SVGID_4_" gradientUnits="userSpaceOnUse" x1="150.9112" y1="18.8063" x2="177.1527" y2="-37.8819" gradientTransform="matrix(0.9581 -0.2865 -0.2865 -0.9581 355.579 144.2381)">
		<stop  offset="0" style="stop-color:#6EBA76"/>
		<stop  offset="1" style="stop-color:#2D2D76"/>
	</linearGradient>
	<path class="st3" d="M513.4,120.6c-17.6-9-32.5-48.7-12.2-45.9c18.8,2.7,1.7,39.2,25.4,41.9L513.4,120.6z"/>
	<g>
		<g>
			<defs>
				<path id="SVGID_5_" d="M513.4,120.6c-17.6-9-32.5-48.7-12.2-45.9c18.8,2.7,1.7,39.2,25.4,41.9L513.4,120.6z"/>
			</defs>
			<clipPath id="SVGID_6_">
				<use xlink:href="#SVGID_5_"  style="overflow:visible;"/>
			</clipPath>
			<g class="st4">
				<path class="st5" d="M530.4,125.4c-0.2-0.1-19.9-10.9-26.9-27.2C500,90,499,84,500.3,78.7c1.3-5.4,5-10.1,10.2-15.5l0.3,0.3
					C499.7,75.1,497,82.1,503.9,98c7,16.2,26.5,26.9,26.7,27L530.4,125.4z"/>
				<path class="st5" d="M500.3,87.5c-8.3-1.7-10.4-6.2-10.4-6.4l0.4-0.2c0,0,2,4.4,10.1,6.1L500.3,87.5z"/>
				<path class="st5" d="M504.2,99.1l-0.2-0.4c4.7-1.7,8.1-7.8,8.2-7.8l0.4,0.2C512.4,91.3,509,97.3,504.2,99.1z"/>
				<path class="st5" d="M508.8,106.9c-14.5,0.1-16.8-6.7-16.9-7l0.5-0.1l-0.2,0.1l0.2-0.1c0,0.1,2.4,6.8,16.5,6.7L508.8,106.9z"/>
			</g>
		</g>
	</g>
	
		<linearGradient id="SVGID_7_" gradientUnits="userSpaceOnUse" x1="967.493" y1="282.5144" x2="983.9808" y2="246.8965" gradientTransform="matrix(0.916 0.4011 0.4011 -0.916 -479.4845 -35.879)">
		<stop  offset="0" style="stop-color:#6EBA76"/>
		<stop  offset="1" style="stop-color:#2D2D76"/>
	</linearGradient>
	<path class="st6" d="M513.7,119c-4.8-11.4,4.2-36.5,12.8-26.9c7.9,8.9-15.1,19.5-4.8,30.4L513.7,119z"/>
	<g>
		<g>
			<defs>
				<path id="SVGID_8_" d="M513.7,119c-4.8-11.4,4.2-36.5,12.8-26.9c7.9,8.9-15.1,19.5-4.8,30.4L513.7,119z"/>
			</defs>
			<clipPath id="SVGID_9_">
				<use xlink:href="#SVGID_8_"  style="overflow:visible;"/>
			</clipPath>
			<g class="st7">
				<path class="st5" d="M519.9,128.2c-0.1-0.1-5.1-13.3-1.8-24c1.6-5.3,3.6-8.6,6.4-10.6c2.8-2,6.5-2.8,11.2-3.3v0.3
					c-10,1.1-14.1,3.3-17.3,13.7c-3.2,10.6,1.8,23.6,1.8,23.8L519.9,128.2z"/>
				<path class="st5" d="M520.9,97.8c-3.3-4.2-2.4-7.2-2.4-7.3l0.3,0.1c0,0-0.8,3,2.4,7L520.9,97.8z"/>
				<path class="st5" d="M518,104.9l0.1-0.3c3,1.1,7.1-0.4,7.1-0.4l0.1,0.3C525.1,104.6,521,106.1,518,104.9z"/>
				<path class="st5" d="M517,110.5c-7-5.9-5.3-10.1-5.2-10.2l0.3,0.1l-0.1-0.1l0.1,0.1c0,0-1.6,4.2,5.2,9.9L517,110.5z"/>
			</g>
		</g>
	</g>
</g>
<g>
	<ellipse class="st8" cx="568.7" cy="141" rx="22.3" ry="0.8"/>
	<path class="st9" d="M568.8,70.3c-0.2-0.5-1.2-4-0.7-4.2l3.3-0.9c0.3-0.1,1.3,1.2,1.4,1.5l0.3,0.9c0,0.1,0.3,1.8,0.6,2.4
		c0.1,0.2,0.3,0.4,0.5,0.6c0.4,0.3,0.8,0.5,1.1,0.6c0.1,0.1,0.1,0.2,0,0.3c-1.1,0.8-5.5,3.6-6.9,3.3C567,74.6,569.9,73.1,568.8,70.3
		z"/>
	<path class="st10" d="M565.2,64.5c0,3.7,0.2,8.1,2.5,7.1s6.4-2.4,6.4-6.1c0-3.7-0.5-6.7-4.5-6.7C567.2,58.9,565.2,60.8,565.2,64.5z
		"/>
	<g>
		<path class="st11" d="M556.2,137.7l2.2,0.7c0.1,0,0.2,0,0.3-0.1l0.6-1.7c0-0.1,0-0.2-0.1-0.3l-2.2-0.7c-0.1,0-0.2,0-0.3,0.1
			l-0.6,1.7C556,137.6,556.1,137.7,556.2,137.7z"/>
		<path class="st12" d="M559,138.1c0,0-0.5,2.5-0.9,2.7s-2.2-0.4-3.1-1c-0.9-0.6-1.8-0.4-3.7-1c-1-0.3-1.8-0.8-1.8-0.8
			s-0.2-1.2,1.6-0.9c1.8,0.3,4,0.2,4.5-0.1C556.1,136.7,556.9,137.8,559,138.1z"/>
	</g>
	<g>
		<path class="st11" d="M584.7,136.2l1.9-1.2c0.1-0.1,0.1-0.2,0.1-0.3l-1-1.5c-0.1-0.1-0.2-0.1-0.3-0.1l-1.9,1.2
			c-0.1,0.1-0.1,0.2-0.1,0.3l1,1.5C584.4,136.2,584.6,136.3,584.7,136.2z"/>
		<path class="st12" d="M586.7,134.2c0,0,1.6,2,1.5,2.4c-0.1,0.4-1.7,1.4-2.7,1.8c-1.1,0.3-1.6,2.4-3.5,2.5c-2.5,0.2-2.3,0-2.3,0
			s-0.5-0.7,1.7-1.6c1.7-0.7,2.3-2.6,2.4-3.2C583.9,135.6,585.2,135.7,586.7,134.2z"/>
	</g>
	<path class="st13" d="M578,98.4c0.1,4.3,1.5,14.5,1.3,15.9c-0.1,1.4-6.4,5.1-7,2.6c-0.7-2.6-4.6-17-6.4-22.4
		c-1.8-5.5,9.2-4.6,9.2-4.6S577.7,89.6,578,98.4z"/>
	<path class="st13" d="M582.3,121.9c1.5,3.8,3.9,8.6,4.3,9.8c0.3,1.2-3.3,4.6-4.7,2.4s-8.1-12.1-9.8-17.5c-1.3-4.2,6.4-4.8,6.4-4.8
		S579.3,114.2,582.3,121.9z"/>
	<path class="st14" d="M574.7,100.9c-2,3.8-6,13.3-6.8,14.5c-0.8,1.1-8.1,1.3-7.4-1.3c0.7-2.6,4.5-17,5.7-22.6s10.3,0.6,10.3,0.6
		S578.9,93.1,574.7,100.9z"/>
	<path class="st11" d="M564.2,85.8c-3.8,0.1-9.7-0.7-10.8-1.3c-1.1-0.6-0.9-2.8,0.4-2.8c1.3,0.1,7.7-0.4,9.7,0.2"/>
	<path class="st14" d="M565.2,124.5c-1.2,3.9-3.5,10.1-4,11.3c-0.5,1.2-5.5,1.6-5.1-1c0.3-2.6,2.4-15.4,4.5-20.7
		c1.6-4.1,7.9,0.3,7.9,0.3S567.7,116.6,565.2,124.5z"/>
	<path class="st11" d="M577.2,80.1c1.6,3.4,2.1,6.5,2.7,7.3c1.8,2.5,2.1,1.3,3.2,0.2c0.4-0.4,0.7-1,0.5-1.6
		c-0.9-3-2.7-10.5-4.5-12.5c-2-2.2-3.1-2.4-4.9-2.9c0,0-3,2.2-5.2,1.3c0,0-1.3,0.5-1.8,1.8c-1.8,4.7-1.8,6.8-1.7,9.6
		c0.1,3.4,0.6,6.4,0.4,7.7c-0.4,2-0.5,2.7,0.4,2.8c0.8,0.1,10.7,0.4,10.8-0.4c0-0.1,0.4-0.3,0.4-0.6c0-1.9-1.3-6.5-0.5-10.2
		c0.1-0.6,0.2-1.3,0.2-2L577.2,80.1z"/>
	<path class="st15" d="M568.3,62c0,0-3,1.1-3.6,0.6c-0.3-0.3-0.6-0.7-0.8-1c0-0.1,0-0.2,0.1-0.1c0.1,0.1,0.2,0.1,0.3,0.1
		c0.3,0.1,1-1.1,2.1-1.7c0.1,0,0.1-0.1,0-0.2c-0.2-0.1-0.4-0.2-0.5-0.3c-0.2-0.2,1.6,0,2.6-0.5c1.1-0.6,4.9-0.5,5.3,0.6"/>
	<path class="st15" d="M570,66.5c0,0-2.9-2.7-2.4-4.1c0.5-1.3,3.2-3.2,5.7-3s2.5,3.3,1.8,5.2c-0.7,1.8-1.5,3.2-1.5,3.2
		S571.5,66.3,570,66.5z"/>
	
		<ellipse transform="matrix(0.2346 -0.9721 0.9721 0.2346 372.4636 604.9002)" class="st10" cx="570.4" cy="65.9" rx="1.4" ry="1.1"/>
	
		<rect x="563.6" y="61.8" transform="matrix(0.4389 -0.8985 0.8985 0.4389 241.596 558.4832)" class="st12" width="8.7" height="48"/>
	<path class="st10" d="M552.2,83.8c1,0.4,2.5,1.2,2.8,0.4s-0.5-1.4-1.4-1.9c-1-0.4-2.3-0.5-2.7,0.2
		C550.6,83.3,551.3,83.4,552.2,83.8z"/>
	<path class="st10" d="M575.4,91.1c0.2,0.4,0.7,0.8,0.7,0.8s-1.6,1.2-2.4,1.5c-0.8,0.3-1.1,0.4-2.1,0.5s-2,0-2.4-1.3
		c-0.3-1.1,1.1-1.8,1.8-1.7c0.8,0,2.1,0.5,2.7,0.2c0.6-0.2,1.4-0.7,1.4-0.7S575.2,90.7,575.4,91.1z"/>
	<path class="st11" d="M581.4,84c-3,2.4-6.6,5.5-7,6.6c-0.4,1.2,1.5,3.5,2.4,2.6s5.4-4.1,6.5-5.8"/>
</g>
<g>
	<ellipse class="st16" cx="356.9" cy="143.7" rx="23.6" ry="0.7"/>
	<path class="st17" d="M377.8,143l-12.1-48.1c-0.1-0.3-0.4-0.5-0.7-0.4c-0.3,0.1-0.5,0.4-0.4,0.7l4.4,17.5h-16.9L350.9,95
		c0-0.3-0.3-0.5-0.6-0.5c-0.3,0-0.5,0.3-0.5,0.6l3.5,48.1c0,0.3,0.3,0.5,0.5,0.5c0,0,0,0,0,0c0.3,0,0.5-0.3,0.5-0.6l-1-13.1h20
		l3.4,13.3c0.1,0.2,0.3,0.4,0.5,0.4c0,0,0.1,0,0.1,0C377.7,143.6,377.9,143.3,377.8,143z M353.3,128.8l-1.1-15.1h17.1l3.8,15.1
		H353.3z"/>
	<path class="st18" d="M365.8,94.1h-16.1c-0.5,0-0.9,0.4-0.9,0.9c0,0.4,0.3,0.8,0.8,0.9L337.7,143c-0.1,0.3,0.1,0.6,0.4,0.7
		c0,0,0.1,0,0.1,0c0.2,0,0.5-0.2,0.5-0.4l3.4-13.3h20l-1,13.1c0,0.3,0.2,0.6,0.5,0.6c0,0,0,0,0,0c0.3,0,0.5-0.2,0.5-0.5l3.5-47.3
		h0.2c0.5,0,0.9-0.4,0.9-0.9C366.7,94.5,366.3,94.1,365.8,94.1z M342.3,128.8l3.8-15.1h17.1l-1.1,15.1H342.3z M363.4,112.6h-16.9
		l4.2-16.7h13.9L363.4,112.6z"/>
	<g>
		<g>
			<path class="st19" d="M353.4,64.4c0.4,0.1,0.7,0.4,0.7,0.4s0.7-1.4,0.8-2.1c0.1-0.7,0.2-0.9,0.1-1.7s-0.3-1.6-1.4-1.7
				c-0.9-0.1-1.2,1.1-1.1,1.7c0.2,0.6,0.7,1.6,0.6,2.1c-0.1,0.5-0.3,1.2-0.3,1.2S353,64.3,353.4,64.4z"/>
			<path class="st20" d="M348.4,77.4c2.1-1.2,4.6-2.7,5.4-4.5c0.8-1.9,0.9-7.7,0.8-8.8c0-0.1-0.1-0.3-0.2-0.3
				c-0.7-0.5-1.5-0.4-1.7-0.3c-0.2,0.2,0.1,6.8-1.8,8.9c-1.3,1.5-1.6,1.4-3.2,2.2c-1.5,0.7-2.6,0.1-2.7,1.9
				C345.1,78.4,346.4,78.6,348.4,77.4z"/>
		</g>
		<g>
			<path class="st19" d="M348.7,77.7c1.8,0.2,3-0.8,3.4-1.2c0.4-0.5-0.8-0.9-1.2-1.4c-0.2-0.2-0.3-0.5-0.3-0.9c0-0.5,0-2.3,0.1-3.1
				l-3.6,0.4c0,0,0.1,1.8,0.1,2.5c0,0.1,0,0.2,0,0.3c-0.1,0.4-0.6,0.6-1.3,1.2C345.1,76.2,346.9,77.5,348.7,77.7z"/>
			<g>
				<g>
					<path class="st19" d="M345.6,71c1.1,1.8,1.6,2.7,2.7,3.1s2.1,0.4,2.7,0.1c0.8-0.4,1.3-2.2,1.1-3.1c-0.2-0.9-0.9-3.2-2.1-5.1
						c-0.6-1-2.4-1.7-3.6-1.1C345.2,65.4,343,66.7,345.6,71z"/>
				</g>
				<path class="st15" d="M350,68.1c0.5,1.7,0.4,2.5-0.1,3.5c-0.5,1-1.4,1.6-2,1.6c-0.8,0.1-1-0.2-2.4-1.5c-0.6-0.6-1.6-1.3-2.1-3.3
					c-0.3-1,0.5-2.6,1.7-3.2C346.3,64.7,348.7,63.9,350,68.1z"/>
				<path class="st19" d="M350.9,69.2c0.2,0.6,0,1.3-0.5,1.4c-0.5,0.1-1-0.3-1.2-0.9c-0.2-0.6,0-1.3,0.5-1.4
					C350.2,68.1,350.7,68.5,350.9,69.2z"/>
				<path class="st15" d="M349,67.4c0.6-0.9,1.5-1.8,0.7-2.4c-0.9-0.6-3.1-1.3-5.1,0.4C342.3,67.4,349,67.4,349,67.4z"/>
			</g>
		</g>
		<path class="st20" d="M357.5,128c-1.9-0.1-3.5-0.6-3.5,0.6c0.1,1,0.2,0.9,3.4,0.9c1.9,0,3.4-0.1,3.5-0.6
			C360.9,128.5,359.4,128.1,357.5,128z"/>
		<path class="st20" d="M348.3,128c-1.8-0.6-3.5-0.6-3.5,0.6c0.1,1-0.1,0.9,3.2,0.9c1.9,0,2.4-0.4,2.1-0.6
			C349.6,128.4,349.1,128.2,348.3,128z"/>
		<path class="st21" d="M350.9,74.5c-1.7,0-2.7-0.1-4.7,0.4c-1.4,0.3-3,1.3-2.4,5.5c0,0,1.1,10.5,1.1,11.9c0.1,3.4-0.8,4.1,1.9,3.8
			c2.9-0.3,6.3-0.1,7.7-0.3c0.4-0.1,0.3-1.1,0.1-2.3c-0.1-1-1-9-0.8-12.8C353.8,78.3,354.5,74.5,350.9,74.5z"/>
		<path class="st22" d="M345.2,126.7c-0.1,1-0.2,1.4-0.2,1.4s0.7,0.1,2.8-0.1c0.2,0,0.6-3,0.7-4.5c0.1-1.5,0.8-8.4,0.7-10.1
			c-0.1-1.6,0.3-11.6,0.3-11.6h0.7c0,0,2,5.2,2.3,7c0.4,2.8,0.8,4.5,0.7,5.5c-0.1,1.8,0.8,10.8,0.9,11.8s0,2,0,2s1.5,0.5,3.1,0.1
			c0,0-0.2-13.5-0.3-15.7c0-1.5-1.1-9.2-1.7-13.4c0-0.1,0-0.2,0-0.3c-0.2-1.5-0.4-2.5-0.4-2.5s0-0.4-0.4-0.5c-0.2,0-0.4-0.1-1.2-0.1
			c-0.1,0-0.2,0-0.3,0c-0.7,0-1.8,0-3.5,0c-4,0-4.7,0.1-4.7,0.4c0,0,0.5,14.3,0.6,16.6C345.6,114.9,345.3,125.7,345.2,126.7z"/>
		<path class="st19" d="M356.4,91"/>
		<path class="st23" d="M353,95.7c0.1,0,0.2,0,0.3,0c-0.1,0.2-0.1,0.5-0.1,0.8c0,1.2,0.9,2.1,2,2.3c0,0.1,0,0.2,0,0.3
			c-1.3-0.1-2.3-1.2-2.3-2.6C352.9,96.2,352.9,96,353,95.7z"/>
		<path class="st19" d="M365.6,74c0.1,0.3,0.1,0.8,0.1,0.8s1.5-0.4,2.2-0.7c0.6-0.3,0.8-0.5,1.4-1c0.6-0.6,1.1-1.2,0.4-2.1
			c-0.5-0.7-1.7-0.3-2,0.2c-0.4,0.5-0.8,1.5-1.2,1.8c-0.4,0.2-1.2,0.5-1.2,0.5S365.4,73.6,365.6,74z"/>
		<path class="st21" d="M352.3,78.2c2.2,0.9,5,1.9,6.9,1.4c2-0.5,6.6-4.1,7.4-4.8c0.1-0.1,0.2-0.2,0.1-0.4c-0.1-0.9-0.6-1.5-0.9-1.5
			c-0.3,0-5.2,4.3-8.1,4.2c-2-0.1-2.1-0.3-3.7-1.1c-1.5-0.7-1.7-1.9-3.2-0.9C349.5,76.2,350.2,77.4,352.3,78.2z"/>
	</g>
</g>
<linearGradient id="SVGID_10_" gradientUnits="userSpaceOnUse" x1="512.2165" y1="112.4688" x2="521.013" y2="127.7048">
	<stop  offset="0" style="stop-color:#6EBA76"/>
	<stop  offset="1" style="stop-color:#2D2D76"/>
</linearGradient>
<path class="st24" d="M505.7,123c0-6.5,5.3-11.7,11.7-11.7c6.5,0,11.7,5.3,11.7,11.7"/>
<g>
	<g>
		<path class="st25" d="M356.9,62.8c7.2,7.4,17.8,10.3,27.5,5c7.4-4.1,11.8-11.8,12.7-19.8c-6,3-13.2,6.1-20.9,8.9
			C369.4,59.3,362.8,61.4,356.9,62.8z"/>
		<path class="st25" d="M395.4,35.5c-0.1-0.3-0.3-0.7-0.4-1c-0.2-0.6-0.5-1.1-0.8-1.6c-6.6-11.8-21.9-15.4-34-8.7
			c-10.2,5.7-13.7,16.2-10.6,26.4c0.1,0.3,0.2,0.7,0.3,1c0.5,1.6,1.2,3.1,2.1,4.7c1.2,2.1,2.5,4,4.1,5.7c6-1.5,12.8-3.5,19.7-6
			c7.9-2.9,15.3-6,21.4-9.2C397.4,42.9,396.9,39.1,395.4,35.5z"/>
		<path class="st26" d="M412.6,35.1c-0.8-2.2-5.4-2.7-13.7-1.3c-1.3,0.2-2.5,0.5-3.9,0.7c0.2,0.3,0.3,0.6,0.4,1
			c1.3-0.3,2.5-0.5,3.6-0.7c1.5-0.3,2.9-0.4,4.2-0.6c2.8-0.3,4.8-0.2,6.2,0c1.4,0.2,2.1,0.7,2.3,1.2c0.4,1.2-1.8,4.1-9.3,8.5
			c-1.6,0.9-3.3,1.9-5.2,2.8c-6.1,3.1-13.5,6.3-21.4,9.2c-6.9,2.5-13.7,4.6-19.7,6c-3,0.7-5.8,1.3-8.4,1.8
			c-8.6,1.4-12.2,0.6-12.6-0.6c-0.7-2,4.8-6.4,14.8-11.5c-0.1-0.3-0.2-0.7-0.3-1c-9.8,4.9-16.6,9.9-15.5,12.9
			c0.6,1.8,3.8,2.4,9.4,1.9c1.3-0.1,2.8-0.3,4.4-0.6c2.8-0.5,5.8-1.1,9-1.9c5.9-1.5,12.5-3.5,19.2-5.9c7.7-2.8,14.9-5.9,20.9-8.9
			c2.1-1,4-2.1,5.8-3.1c6.8-4,10.1-7.1,9.9-9.3C412.7,35.4,412.7,35.2,412.6,35.1z"/>
	</g>
	<path class="st27" d="M358.7,35.4c-1.3,0.6-2.6-0.2-3.2-1.5c-0.5-1.3-0.1-2.6,1.2-3.2c1.3-0.6,2.8,0,3.4,1.2
		C360.6,33.2,360,34.8,358.7,35.4z"/>
	<path class="st27" d="M354.5,37.8c-0.7,0.3-1.4-0.1-1.7-0.8c-0.3-0.7-0.1-1.4,0.6-1.7s1.5,0,1.8,0.7
		C355.5,36.7,355.2,37.5,354.5,37.8z"/>
	<path class="st27" d="M385.7,64.8c-0.7,0.3-1.4-0.1-1.7-0.8c-0.3-0.7-0.1-1.4,0.6-1.7s1.5,0,1.8,0.7
		C386.7,63.6,386.4,64.5,385.7,64.8z"/>
</g>
</svg>
