<?xml version="1.0" encoding="utf-8"?>
<!-- Generator: Adobe Illustrator 21.0.2, SVG Export Plug-In . SVG Version: 6.00 Build 0)  -->
<svg version="1.1" id="Layer_1" xmlns="http://www.w3.org/2000/svg" xmlns:xlink="http://www.w3.org/1999/xlink" x="0px" y="0px"
	 viewBox="0 0 1350 370" style="enable-background:new 0 0 1350 370;" xml:space="preserve">
<style type="text/css">
	.st0{fill:#FFDE00;}
	.st1{clip-path:url(#SVGID_2_);}
	.st2{fill:url(#SVGID_3_);}
	.st3{fill:url(#SVGID_4_);}
	.st4{fill:url(#SVGID_5_);}
	.st5{fill:url(#SVGID_6_);}
	.st6{fill:url(#SVGID_7_);}
	.st7{fill:url(#SVGID_8_);}
	.st8{fill:url(#SVGID_9_);}
	.st9{fill:url(#SVGID_10_);}
	.st10{fill:url(#SVGID_11_);}
	.st11{opacity:0.61;fill:url(#SVGID_12_);}
</style>
<path class="st0" d="M683.6,90.8c0,0-33.1,218.8-33.1,218.8s29,0.6,29,0.6c0.4,0,5-15,5.3-15.9c4.9-13,11-25.6,18.4-37.4
	c17-27.2,41.2-50.9,75.2-50.6c19.7,0.2,38.8,6.9,56.9,14.7s35.9,16.6,55,21.6c19.1,4.9,40.1,5.6,57.9-2.9
	c17.1-8.2,29.6-24,37.5-41.2c8.2-17.9,12.4-37.8,15.7-57.1c-30.5-3.8-61.1-9.7-91.5-14.5c-53.5-8.5-107-17-160.5-25.5
	C745.8,100.6,683.6,90.8,683.6,90.8z"/>
<g>
	<defs>
		
			<rect id="SVGID_1_" x="0" y="-16" transform="matrix(-1 -8.364388e-11 8.364388e-11 -1 1350 806.4435)" width="1350" height="838.4"/>
	</defs>
	<clipPath id="SVGID_2_">
		<use xlink:href="#SVGID_1_"  style="overflow:visible;"/>
	</clipPath>
	<g class="st1">
		
			<linearGradient id="SVGID_3_" gradientUnits="userSpaceOnUse" x1="-50.8344" y1="-636.6483" x2="639.3785" y2="-636.6483" gradientTransform="matrix(-0.2601 -0.9656 0.9656 -0.2601 2057.5027 501.1433)">
			<stop  offset="0" style="stop-color:#FAC738"/>
			<stop  offset="1" style="stop-color:#E7226C"/>
		</linearGradient>
		<path class="st2" d="M1508,701.8c-27.1,0.9-38.5-3-55.7-13.5c-127.8-78.2,27-542.1-410.9-550.3c-18.5-14.7-6.8-23.5-6.8-23.5
			L1526.3-8.9C1526.3-8.9,1512.9,701.6,1508,701.8z"/>
		
			<linearGradient id="SVGID_4_" gradientUnits="userSpaceOnUse" x1="1578.5455" y1="107.6248" x2="2512.7" y2="107.6248" gradientTransform="matrix(-1 0 0 -1 2429 370)">
			<stop  offset="0" style="stop-color:#FAC738"/>
			<stop  offset="1" style="stop-color:#E7226C"/>
		</linearGradient>
		<path class="st3" d="M848.4,228.1c-7.8,23.4-35.9,42.7-55.5,54.9c-95.4,59.5-194.1,18.6-290.1-15.3C338,209.6,87.4,213-15.9,381.4
			c-5.1,8.2-42.9,107.4-34.4,107.4h-33.3V36h934.2c0,37.7,0,75.4,0,113.1c0,22-0.3,44,0,66C850.5,219.6,849.8,223.9,848.4,228.1z"/>
		
			<linearGradient id="SVGID_5_" gradientUnits="userSpaceOnUse" x1="1048.0065" y1="210.7165" x2="2480.3" y2="210.7165" gradientTransform="matrix(-1 0 0 -1 2429 370)">
			<stop  offset="0" style="stop-color:#FAC738"/>
			<stop  offset="1" style="stop-color:#E7226C"/>
		</linearGradient>
		<path class="st4" d="M1368.9,18.1c4.4,13.4-143.6,281.7-663.7,147.3c-212.5-58.2-535.7-54.7-669.1,113.6
			c-6.5,8.2-55.4,107.4-44.4,107.4h-43V-66.3h1205C1460.2-81.4,1367.5,13.8,1368.9,18.1z"/>
		
			<linearGradient id="SVGID_6_" gradientUnits="userSpaceOnUse" x1="1472.0498" y1="71.2953" x2="1472.0498" y2="175.2777" gradientTransform="matrix(-1 0 0 -1 2429 370)">
			<stop  offset="0" style="stop-color:#FAC738"/>
			<stop  offset="1" style="stop-color:#E7226C"/>
		</linearGradient>
		<ellipse class="st5" cx="957" cy="269.8" rx="47.7" ry="42.7"/>
		
			<linearGradient id="SVGID_7_" gradientUnits="userSpaceOnUse" x1="2121.2" y1="79.0587" x2="2121.2" y2="121.5672" gradientTransform="matrix(-1 0 0 -1 2429 370)">
			<stop  offset="0" style="stop-color:#FAC738"/>
			<stop  offset="1" style="stop-color:#E7226C"/>
		</linearGradient>
		<ellipse class="st6" cx="307.8" cy="279.1" rx="19.5" ry="17.4"/>
		
			<linearGradient id="SVGID_8_" gradientUnits="userSpaceOnUse" x1="2129.0498" y1="177.4625" x2="2129.0498" y2="246.1303" gradientTransform="matrix(-1 0 0 -1 2429 370)">
			<stop  offset="0" style="stop-color:#FAC738"/>
			<stop  offset="1" style="stop-color:#E7226C"/>
		</linearGradient>
		<ellipse class="st7" cx="300" cy="149.1" rx="31.5" ry="28.2"/>
		
			<linearGradient id="SVGID_9_" gradientUnits="userSpaceOnUse" x1="1315.7" y1="77.1244" x2="1315.7" y2="120.9408" gradientTransform="matrix(-1 0 0 -1 2429 370)">
			<stop  offset="0" style="stop-color:#FAC738"/>
			<stop  offset="1" style="stop-color:#E7226C"/>
		</linearGradient>
		<ellipse class="st8" cx="1113.3" cy="265.2" rx="20.1" ry="18"/>
		
			<linearGradient id="SVGID_10_" gradientUnits="userSpaceOnUse" x1="1249.1" y1="144.6889" x2="1249.1" y2="213.3565" gradientTransform="matrix(-1 0 0 -1 2429 370)">
			<stop  offset="0" style="stop-color:#FAC738"/>
			<stop  offset="1" style="stop-color:#E7226C"/>
		</linearGradient>
		<ellipse class="st9" cx="1179.9" cy="181.9" rx="31.5" ry="28.2"/>
		
			<linearGradient id="SVGID_11_" gradientUnits="userSpaceOnUse" x1="1682.9" y1="159.5149" x2="1682.9" y2="218.3729" gradientTransform="matrix(-1 0 0 -1 2429 370)">
			<stop  offset="0" style="stop-color:#FAC738"/>
			<stop  offset="1" style="stop-color:#E7226C"/>
		</linearGradient>
		<ellipse class="st10" cx="746.1" cy="168.5" rx="27" ry="24.2"/>
		
			<linearGradient id="SVGID_12_" gradientUnits="userSpaceOnUse" x1="1688.9498" y1="369.3763" x2="4772.5161" y2="369.3763" gradientTransform="matrix(-1 0 0 -1 2429 370)">
			<stop  offset="0" style="stop-color:#FAC738"/>
			<stop  offset="1" style="stop-color:#E7226C"/>
		</linearGradient>
		<path class="st11" d="M191.7-66.3l-537.6,0.5c0,0,139.3,10.4,261.6,63.7C32.9,49.2,161.8,84.5,291.5,59
			c64.7-12.7,127.2-35,186.9-61c122.3-53.3,261.6-63.7,261.6-63.7s-537.6-0.5-537.6-0.6l-5.4,0C197.1-66.3,191.7-66.3,191.7-66.3z"
			/>
	</g>
</g>
</svg>
